name rise31.4854peak64.571fall78.6902.mot
datacolumns 19
datarows 11
range 0.34833600000000 0.36499900000000
endheader
time	ground_force1_vx	ground_force1_vy	ground_force1_vz	ground_force1_px	ground_force1_py	ground_force1_pz	ground_force2_vx	ground_force2_vy	ground_force2_vz	ground_force2_px	ground_force2_py	ground_force2_pz	ground_torque1_x	ground_torque1_y	ground_torque1_z	ground_torque2_x	ground_torque2_y	ground_torque2_z	
0.34833600000000	-7.77923300000000	43.66635200000000	-10.59760500000000	0.28954200000000	0.00000000000000	0.09200200000000	-31.59617000000000	782.33314399999995	-45.74716200000000	0.13072000000000	0.00000000000000	-0.07468400000000	0.00000000000000	-6.56663700000000	0.00000000000000	0.00000000000000	-16.23382100000000	0.00000000000000	
0.35000100000000	-8.41104000000000	51.26165200000000	-11.88462100000000	0.29818100000000	0.00000000000000	0.09291800000000	-32.23374000000000	779.15926200000001	-45.18399400000000	0.13010200000000	0.00000000000000	-0.07451600000000	0.00000000000000	-7.51868900000000	0.00000000000000	0.00000000000000	-16.13041300000000	0.00000000000000	
0.35166700000000	-8.86414500000000	58.97548400000000	-13.04359100000000	0.30591200000000	0.00000000000000	0.09374600000000	-32.89544500000000	775.88004000000001	-44.60622900000000	0.12948900000000	0.00000000000000	-0.07434600000000	0.00000000000000	-8.41631000000000	0.00000000000000	0.00000000000000	-16.03053400000000	0.00000000000000	
0.35333300000000	-9.11755100000000	66.71083100000000	-14.04691200000000	0.31286500000000	0.00000000000000	0.09450000000000	-33.58083700000000	772.49305400000003	-44.01404600000000	0.12888300000000	0.00000000000000	-0.07417300000000	0.00000000000000	-9.23838100000000	0.00000000000000	0.00000000000000	-15.93418500000000	0.00000000000000	
0.35499700000000	-9.15988500000000	74.39400999999999	-14.87672800000000	0.31914900000000	0.00000000000000	0.09519200000000	-34.28934500000000	768.99574800000005	-43.40763000000000	0.12828100000000	0.00000000000000	-0.07399700000000	0.00000000000000	-9.96970500000000	0.00000000000000	0.00000000000000	-15.84134800000000	0.00000000000000	
0.35667100000000	-8.98911500000000	81.97701400000000	-15.52499500000000	0.32484900000000	0.00000000000000	0.09583100000000	-35.02026800000000	765.38544700000000	-42.78717600000000	0.12768300000000	0.00000000000000	-0.07381800000000	0.00000000000000	-10.60135700000000	0.00000000000000	0.00000000000000	-15.75198000000000	0.00000000000000	
0.35833100000000	-8.61156800000000	89.43734200000000	-15.99274500000000	0.33003600000000	0.00000000000000	0.09642500000000	-35.77277800000000	761.65936099999999	-42.15288600000000	0.12709000000000	0.00000000000000	-0.07363700000000	0.00000000000000	-11.13045000000000	0.00000000000000	0.00000000000000	-15.66601800000000	0.00000000000000	
0.36000200000000	-8.04042200000000	96.77576500000001	-16.28871900000000	0.33477100000000	0.00000000000000	0.09697800000000	-36.54591800000000	757.81459800000005	-41.50497300000000	0.12650000000000	0.00000000000000	-0.07345400000000	0.00000000000000	-11.55944100000000	0.00000000000000	0.00000000000000	-15.58337500000000	0.00000000000000	
0.36166500000000	-7.29389900000000	104.01253800000001	-16.42761300000000	0.33910400000000	0.00000000000000	0.09749800000000	-37.33859700000000	753.84817199999998	-40.84366400000000	0.12591300000000	0.00000000000000	-0.07326800000000	0.00000000000000	-11.89512200000000	0.00000000000000	0.00000000000000	-15.50394200000000	0.00000000000000	
0.36333000000000	-6.39335200000000	111.18268300000000	-16.42813100000000	0.34307600000000	0.00000000000000	0.09798700000000	-38.14959400000000	749.75702200000001	-40.16919900000000	0.12532900000000	0.00000000000000	-0.07308000000000	0.00000000000000	-12.14741200000000	0.00000000000000	0.00000000000000	-15.42759100000000	0.00000000000000	
0.36499900000000	-5.36143000000000	118.33085500000000	-16.31105300000000	0.34672500000000	0.00000000000000	0.09844900000000	-38.97755600000000	745.53801899999996	-39.48183200000000	0.12474600000000	0.00000000000000	-0.07289000000000	0.00000000000000	-12.32811100000000	0.00000000000000	0.00000000000000	-15.35416800000000	0.00000000000000	
